<?xml version="1.0" encoding="UTF-8" standalone="no"?>
<!DOCTYPE svg PUBLIC "-//W3C//DTD SVG 1.1//EN"
 "http://www.w3.org/Graphics/SVG/1.1/DTD/svg11.dtd">
<!-- Generated by graphviz version 2.38.0 (20140413.2041)
 -->
<!-- Title: %3 Pages: 1 -->
<svg width="478pt" height="332pt"
 viewBox="0.00 0.00 478.00 332.00" xmlns="http://www.w3.org/2000/svg" xmlns:xlink="http://www.w3.org/1999/xlink">
<g id="graph0" class="graph" transform="scale(1 1) rotate(0) translate(4 328)">
<title>%3</title>
<polygon fill="white" stroke="none" points="-4,4 -4,-328 474,-328 474,4 -4,4"/>
<!-- EE233 -->
<g id="node1" class="node"><title>EE233</title>
<ellipse fill="none" stroke="black" cx="240" cy="-306" rx="37.0935" ry="18"/>
<text text-anchor="middle" x="240" y="-302.3" font-family="Helvetica,sans-Serif" font-size="14.00">EE233</text>
</g>
<!-- EE215 -->
<g id="node2" class="node"><title>EE215</title>
<g id="a_node2"><a xlink:href="https://alexeidt.pythonanywhere.com/EE215" xlink:title="EE215" target="_blank">
<polygon fill="#fcfcfc" stroke="#4d4d4d" points="268.5,-252 211.5,-252 211.5,-216 268.5,-216 268.5,-252"/>
<text text-anchor="middle" x="240" y="-230.3" font-family="Helvetica,sans-Serif" font-size="14.00">EE215</text>
</a>
</g>
</g>
<!-- EE233&#45;&gt;EE215 -->
<g id="edge1" class="edge"><title>EE233&#45;&gt;EE215</title>
<path fill="none" stroke="black" d="M240,-287.831C240,-287.831 240,-260.413 240,-260.413"/>
<polygon fill="black" stroke="black" points="236.8,-252.413 243.2,-252.413 243.2,-258.813 236.8,-258.813 236.8,-252.413"/>
<polyline fill="none" stroke="black" points="240,-258.813 240,-260.413 "/>
</g>
<!-- MATH136 -->
<g id="node3" class="node"><title>MATH136</title>
<g id="a_node3"><a xlink:href="https://alexeidt.pythonanywhere.com/MATH136" xlink:title="MATH136" target="_blank">
<polygon fill="#f5f5f5" stroke="#4d4d4d" points="78,-180 0,-180 0,-144 78,-144 78,-180"/>
<text text-anchor="middle" x="39" y="-158.3" font-family="Helvetica,sans-Serif" font-size="14.00">MATH136</text>
</a>
</g>
</g>
<!-- EE215&#45;&gt;MATH136 -->
<g id="edge2" class="edge"><title>EE215&#45;&gt;MATH136</title>
<path fill="none" stroke="black" d="M211.202,-240C155.623,-240 39,-240 39,-240 39,-240 39,-188.091 39,-188.091"/>
<polygon fill="black" stroke="black" points="35.8,-180.091 42.2,-180.091 42.2001,-186.491 35.8001,-186.491 35.8,-180.091"/>
<polyline fill="none" stroke="black" points="39.0001,-186.491 39.0001,-188.091 "/>
</g>
<!-- MATH126 -->
<g id="node6" class="node"><title>MATH126</title>
<g id="a_node6"><a xlink:href="https://alexeidt.pythonanywhere.com/MATH126" xlink:title="MATH126" target="_blank">
<polygon fill="#f5f5f5" stroke="#4d4d4d" points="470,-180 392,-180 392,-144 470,-144 470,-180"/>
<text text-anchor="middle" x="431" y="-158.3" font-family="Helvetica,sans-Serif" font-size="14.00">MATH126</text>
</a>
</g>
</g>
<!-- EE215&#45;&gt;MATH126 -->
<g id="edge5" class="edge"><title>EE215&#45;&gt;MATH126</title>
<path fill="none" stroke="black" d="M268.595,-240C321.877,-240 431,-240 431,-240 431,-240 431,-188.091 431,-188.091"/>
<polygon fill="black" stroke="black" points="427.8,-180.091 434.2,-180.091 434.2,-186.491 427.8,-186.491 427.8,-180.091"/>
<polyline fill="none" stroke="black" points="431,-186.491 431,-188.091 "/>
</g>
<!-- MATH307 -->
<g id="node9" class="node"><title>MATH307</title>
<g id="a_node9"><a xlink:href="https://alexeidt.pythonanywhere.com/MATH307" xlink:title="MATH307" target="_blank">
<polygon fill="#f5f5f5" stroke="#4d4d4d" points="374,-180 296,-180 296,-144 374,-144 374,-180"/>
<text text-anchor="middle" x="335" y="-158.3" font-family="Helvetica,sans-Serif" font-size="14.00">MATH307</text>
</a>
</g>
</g>
<!-- EE215&#45;&gt;MATH307 -->
<g id="edge8" class="edge"><title>EE215&#45;&gt;MATH307</title>
<path fill="none" stroke="black" d="M268.503,-228C296.486,-228 335,-228 335,-228 335,-228 335,-186.435 335,-186.435"/>
<ellipse fill="black" stroke="black" cx="335" cy="-183.235" rx="3.2" ry="3.2"/>
</g>
<!-- AMATH351 -->
<g id="node10" class="node"><title>AMATH351</title>
<g id="a_node10"><a xlink:href="https://alexeidt.pythonanywhere.com/AMATH351" xlink:title="AMATH351" target="_blank">
<polygon fill="#f5f5f5" stroke="#4d4d4d" points="183.5,-180 96.5,-180 96.5,-144 183.5,-144 183.5,-180"/>
<text text-anchor="middle" x="140" y="-158.3" font-family="Helvetica,sans-Serif" font-size="14.00">AMATH351</text>
</a>
</g>
</g>
<!-- EE215&#45;&gt;AMATH351 -->
<g id="edge10" class="edge"><title>EE215&#45;&gt;AMATH351</title>
<path fill="none" stroke="black" d="M211.344,-228C181.794,-228 140,-228 140,-228 140,-228 140,-186.435 140,-186.435"/>
<ellipse fill="black" stroke="black" cx="140" cy="-183.235" rx="3.2" ry="3.2"/>
</g>
<!-- PHYS122 -->
<g id="node11" class="node"><title>PHYS122</title>
<g id="a_node11"><a xlink:href="https://alexeidt.pythonanywhere.com/PHYS122" xlink:title="PHYS122" target="_blank">
<polygon fill="#f5f5f5" stroke="#4d4d4d" points="278,-180 202,-180 202,-144 278,-144 278,-180"/>
<text text-anchor="middle" x="240" y="-158.3" font-family="Helvetica,sans-Serif" font-size="14.00">PHYS122</text>
</a>
</g>
</g>
<!-- EE215&#45;&gt;PHYS122 -->
<g id="edge13" class="edge"><title>EE215&#45;&gt;PHYS122</title>
<path fill="none" stroke="black" d="M240,-215.831C240,-215.831 240,-188.413 240,-188.413"/>
<polygon fill="black" stroke="black" points="242.8,-188.413 240,-180.413 237.2,-188.413 242.8,-188.413"/>
</g>
<!-- MATH135 -->
<g id="node4" class="node"><title>MATH135</title>
<g id="a_node4"><a xlink:href="https://alexeidt.pythonanywhere.com/MATH135" xlink:title="MATH135" target="_blank">
<polygon fill="#ededed" stroke="#4d4d4d" points="78,-108 0,-108 0,-72 78,-72 78,-108"/>
<text text-anchor="middle" x="39" y="-86.3" font-family="Helvetica,sans-Serif" font-size="14.00">MATH135</text>
</a>
</g>
</g>
<!-- MATH136&#45;&gt;MATH135 -->
<g id="edge3" class="edge"><title>MATH136&#45;&gt;MATH135</title>
<path fill="none" stroke="black" d="M39,-143.831C39,-143.831 39,-116.413 39,-116.413"/>
<polygon fill="black" stroke="black" points="35.8,-108.413 42.2,-108.413 42.2001,-114.813 35.8001,-114.813 35.8,-108.413"/>
<polyline fill="none" stroke="black" points="39.0001,-114.813 39.0001,-116.413 "/>
</g>
<!-- MATH134 -->
<g id="node5" class="node"><title>MATH134</title>
<g id="a_node5"><a xlink:href="https://alexeidt.pythonanywhere.com/MATH134" xlink:title="MATH134" target="_blank">
<polygon fill="#e5e5e5" stroke="#4d4d4d" points="177,-36 99,-36 99,-0 177,-0 177,-36"/>
<text text-anchor="middle" x="138" y="-14.3" font-family="Helvetica,sans-Serif" font-size="14.00">MATH134</text>
</a>
</g>
</g>
<!-- MATH135&#45;&gt;MATH134 -->
<g id="edge4" class="edge"><title>MATH135&#45;&gt;MATH134</title>
<path fill="none" stroke="black" d="M78.2265,-84C99.8406,-84 122.333,-84 122.333,-84 122.333,-84 122.333,-44.0348 122.333,-44.0348"/>
<polygon fill="black" stroke="black" points="119.133,-36.0348 125.533,-36.0348 125.533,-42.4348 119.133,-42.4348 119.133,-36.0348"/>
<polyline fill="none" stroke="black" points="122.333,-42.4348 122.333,-44.0348 "/>
</g>
<!-- MATH125 -->
<g id="node7" class="node"><title>MATH125</title>
<g id="a_node7"><a xlink:href="https://alexeidt.pythonanywhere.com/MATH125" xlink:title="MATH125" target="_blank">
<polygon fill="#ededed" stroke="#4d4d4d" points="400,-108 322,-108 322,-72 400,-72 400,-108"/>
<text text-anchor="middle" x="361" y="-86.3" font-family="Helvetica,sans-Serif" font-size="14.00">MATH125</text>
</a>
</g>
</g>
<!-- MATH126&#45;&gt;MATH125 -->
<g id="edge6" class="edge"><title>MATH126&#45;&gt;MATH125</title>
<path fill="none" stroke="black" d="M396,-143.831C396,-143.831 396,-116.413 396,-116.413"/>
<polygon fill="black" stroke="black" points="392.8,-108.413 399.2,-108.413 399.2,-114.813 392.8,-114.813 392.8,-108.413"/>
<polyline fill="none" stroke="black" points="396,-114.813 396,-116.413 "/>
</g>
<!-- MATH124 -->
<g id="node8" class="node"><title>MATH124</title>
<g id="a_node8"><a xlink:href="https://alexeidt.pythonanywhere.com/MATH124" xlink:title="MATH124" target="_blank">
<polygon fill="#e5e5e5" stroke="#4d4d4d" points="305,-36 227,-36 227,-0 305,-0 305,-36"/>
<text text-anchor="middle" x="266" y="-14.3" font-family="Helvetica,sans-Serif" font-size="14.00">MATH124</text>
</a>
</g>
</g>
<!-- MATH125&#45;&gt;MATH124 -->
<g id="edge7" class="edge"><title>MATH125&#45;&gt;MATH124</title>
<path fill="none" stroke="black" d="M361,-71.8314C361,-50.502 361,-18 361,-18 361,-18 313.189,-18 313.189,-18"/>
<polygon fill="black" stroke="black" points="305.189,-21.2 305.189,-14.8 311.589,-14.8001 311.589,-21.2001 305.189,-21.2"/>
<polyline fill="none" stroke="black" points="311.589,-18.0001 313.189,-18.0001 "/>
</g>
<!-- MATH307&#45;&gt;MATH125 -->
<g id="edge9" class="edge"><title>MATH307&#45;&gt;MATH125</title>
<path fill="none" stroke="black" d="M361,-143.831C361,-143.831 361,-116.413 361,-116.413"/>
<polygon fill="black" stroke="black" points="357.8,-108.413 364.2,-108.413 364.2,-114.813 357.8,-114.813 357.8,-108.413"/>
<polyline fill="none" stroke="black" points="361,-114.813 361,-116.413 "/>
</g>
<!-- AMATH351&#45;&gt;MATH135 -->
<g id="edge12" class="edge"><title>AMATH351&#45;&gt;MATH135</title>
<path fill="none" stroke="black" d="M110.667,-143.965C110.667,-124.424 110.667,-96 110.667,-96 110.667,-96 86.1883,-96 86.1883,-96"/>
<polygon fill="black" stroke="black" points="78.1883,-99.2 78.1884,-92.8 84.5884,-92.8001 84.5883,-99.2001 78.1883,-99.2"/>
<polyline fill="none" stroke="black" points="84.5883,-96.0001 86.1883,-96.0001 "/>
</g>
<!-- AMATH351&#45;&gt;MATH125 -->
<g id="edge11" class="edge"><title>AMATH351&#45;&gt;MATH125</title>
<path fill="none" stroke="black" d="M158.75,-143.944C158.75,-132.561 158.75,-120 158.75,-120 158.75,-120 335,-120 335,-120 335,-120 335,-116.143 335,-116.143"/>
<polygon fill="black" stroke="black" points="331.8,-108.143 338.2,-108.143 338.2,-114.543 331.8,-114.543 331.8,-108.143"/>
<polyline fill="none" stroke="black" points="335,-114.543 335,-116.143 "/>
</g>
<!-- PHYS122&#45;&gt;MATH134 -->
<g id="edge21" class="edge"><title>PHYS122&#45;&gt;MATH134</title>
<path fill="none" stroke="black" d="M215.667,-143.793C215.667,-106.944 215.667,-27 215.667,-27 215.667,-27 183.688,-27 183.688,-27"/>
<ellipse fill="black" stroke="black" cx="180.488" cy="-27" rx="3.2" ry="3.2"/>
</g>
<!-- PHYS122&#45;&gt;MATH125 -->
<g id="edge20" class="edge"><title>PHYS122&#45;&gt;MATH125</title>
<path fill="none" stroke="black" d="M261.333,-143.857C261.333,-137.539 261.333,-132 261.333,-132 261.333,-132 348,-132 348,-132 348,-132 348,-114.456 348,-114.456"/>
<ellipse fill="black" stroke="black" cx="348" cy="-111.256" rx="3.2" ry="3.2"/>
</g>
<!-- PHYS121 -->
<g id="node12" class="node"><title>PHYS121</title>
<g id="a_node12"><a xlink:href="https://alexeidt.pythonanywhere.com/PHYS121" xlink:title="PHYS121" target="_blank">
<polygon fill="#ededed" stroke="#4d4d4d" points="210,-108 134,-108 134,-72 210,-72 210,-108"/>
<text text-anchor="middle" x="172" y="-86.3" font-family="Helvetica,sans-Serif" font-size="14.00">PHYS121</text>
</a>
</g>
</g>
<!-- PHYS122&#45;&gt;PHYS121 -->
<g id="edge14" class="edge"><title>PHYS122&#45;&gt;PHYS121</title>
<path fill="none" stroke="black" d="M206,-143.831C206,-143.831 206,-116.413 206,-116.413"/>
<polygon fill="black" stroke="black" points="202.8,-108.413 209.2,-108.413 209.2,-114.813 202.8,-114.813 202.8,-108.413"/>
<polyline fill="none" stroke="black" points="206,-114.813 206,-116.413 "/>
</g>
<!-- PHYS141 -->
<g id="node13" class="node"><title>PHYS141</title>
<g id="a_node13"><a xlink:href="https://alexeidt.pythonanywhere.com/PHYS141" xlink:title="PHYS141" target="_blank">
<polygon fill="#ededed" stroke="#4d4d4d" points="304,-108 228,-108 228,-72 304,-72 304,-108"/>
<text text-anchor="middle" x="266" y="-86.3" font-family="Helvetica,sans-Serif" font-size="14.00">PHYS141</text>
</a>
</g>
</g>
<!-- PHYS122&#45;&gt;PHYS141 -->
<g id="edge17" class="edge"><title>PHYS122&#45;&gt;PHYS141</title>
<path fill="none" stroke="black" d="M244.667,-143.831C244.667,-143.831 244.667,-116.413 244.667,-116.413"/>
<polygon fill="black" stroke="black" points="241.467,-108.413 247.867,-108.413 247.867,-114.813 241.467,-114.813 241.467,-108.413"/>
<polyline fill="none" stroke="black" points="244.667,-114.813 244.667,-116.413 "/>
</g>
<!-- PHYS121&#45;&gt;MATH134 -->
<g id="edge16" class="edge"><title>PHYS121&#45;&gt;MATH134</title>
<path fill="none" stroke="black" d="M155.5,-71.8314C155.5,-71.8314 155.5,-44.4133 155.5,-44.4133"/>
<polygon fill="black" stroke="black" points="152.3,-36.4133 158.7,-36.4132 158.7,-42.8132 152.3,-42.8133 152.3,-36.4133"/>
<polyline fill="none" stroke="black" points="155.5,-42.8133 155.5,-44.4133 "/>
</g>
<!-- PHYS121&#45;&gt;MATH124 -->
<g id="edge15" class="edge"><title>PHYS121&#45;&gt;MATH124</title>
<path fill="none" stroke="black" d="M193.5,-71.6198C193.5,-47.7215 193.5,-9 193.5,-9 193.5,-9 218.779,-9 218.779,-9"/>
<polygon fill="black" stroke="black" points="226.779,-5.8 226.779,-12.2 220.379,-12.2001 220.379,-5.80008 226.779,-5.8"/>
<polyline fill="none" stroke="black" points="220.379,-9.00008 218.779,-9.0001 "/>
</g>
<!-- PHYS141&#45;&gt;MATH134 -->
<g id="edge19" class="edge"><title>PHYS141&#45;&gt;MATH134</title>
<path fill="none" stroke="black" d="M227.924,-90C223.953,-90 221.333,-90 221.333,-90 221.333,-90 221.333,-18 221.333,-18 221.333,-18 185.227,-18 185.227,-18"/>
<polygon fill="black" stroke="black" points="177.226,-21.2 177.227,-14.8 183.627,-14.8001 183.626,-21.2001 177.226,-21.2"/>
<polyline fill="none" stroke="black" points="183.627,-18.0001 185.227,-18.0001 "/>
</g>
<!-- PHYS141&#45;&gt;MATH124 -->
<g id="edge18" class="edge"><title>PHYS141&#45;&gt;MATH124</title>
<path fill="none" stroke="black" d="M266,-71.8314C266,-71.8314 266,-44.4133 266,-44.4133"/>
<polygon fill="black" stroke="black" points="262.8,-36.4133 269.2,-36.4132 269.2,-42.8132 262.8,-42.8133 262.8,-36.4133"/>
<polyline fill="none" stroke="black" points="266,-42.8133 266,-44.4133 "/>
</g>
</g>
</svg>
